<svg width="168" height="167" viewBox="0 0 168 167" fill="none" xmlns="http://www.w3.org/2000/svg">
<rect width="38.3791" height="37.1853" transform="matrix(0.874821 -0.484447 2.29687e-08 1 33.1475 36.5739)" fill="#A92F37"/>
<rect width="38.3791" height="39.1294" transform="matrix(0.874821 -0.484447 2.29687e-08 1 100.295 38.5714)" fill="#A92F37"/>
<rect width="38.3791" height="37.1853" transform="matrix(0.874821 0.484447 -2.29687e-08 1 66.7212 19.9893)" fill="#722F2F"/>
<rect width="38.3791" height="39.4365" transform="matrix(0.874821 0.484447 -2.29687e-08 1 33.1475 72.3461)" fill="#722F2F"/>
<rect width="38.3791" height="37.1853" transform="matrix(0.874821 -0.484447 2.29687e-08 1 66.7212 129.537)" fill="#A92F37"/>
<rect width="38.3791" height="37.1853" transform="matrix(0.874821 -0.484447 2.29687e-08 1 100.295 110.944)" fill="#A92F37"/>
<rect width="40.771" height="37.6812" transform="matrix(0.874821 -0.484447 2.29687e-08 1 131.775 93.0496)" fill="#A92F37"/>
<rect width="38.3791" height="38.3791" transform="matrix(0.874821 0.484447 -0.874821 0.484447 66.7222 55.1665)" fill="#8D2929"/>
<rect width="37.0023" height="38.3791" transform="matrix(0.874821 0.484447 -0.874821 0.484447 34.3525 0.0555725)" fill="#8D2929"/>
<rect width="40.8588" height="38.3791" transform="matrix(0.874821 0.484447 -0.874821 0.484447 98.1265 0.195312)" fill="#8D2929"/>
<rect width="38.3791" height="39.1294" transform="matrix(0.874821 -0.484447 2.29687e-08 1 100.295 38.5714)" fill="#A92F37"/>
<rect width="38.3791" height="37.1853" transform="matrix(0.874821 0.484447 -2.29687e-08 1 66.7212 19.9893)" fill="#722F2F"/>
<rect width="38.3791" height="38.3791" transform="matrix(0.874821 0.484447 -0.874821 0.484447 100.296 73.7592)" fill="#8D2929"/>
<rect width="38.3791" height="38.3791" transform="matrix(0.874821 0.484447 -0.874821 0.484447 66.7222 92.3518)" fill="#8D2929"/>
<rect width="38.3791" height="37.1853" transform="matrix(0.874821 0.484447 -2.29687e-08 1 33.1475 110.944)" fill="#722F2F"/>
<rect width="38.3791" height="112.417" transform="matrix(0.874821 0.484447 -2.29687e-08 1 0.891602 17.9813)" fill="#722F2F"/>
<rect width="38.3791" height="38.3791" transform="matrix(0.874821 -0.484447 0.874821 0.484447 100.295 73.7592)" fill="#8D2929"/>
</svg>
